HIERARCHY
ROOT Hips
{
  OFFSET 5.72205e-005 65.662 3.42586
  CHANNELS 6 Xposition Yposition Zposition Zrotation Xrotation Yrotation
  JOINT Chest
  {
    OFFSET 0 8.7983 -4.7612
    CHANNELS 3 Zrotation Xrotation Yrotation
    JOINT Chest2
    {
      OFFSET 0 8.0291 0.4195
      CHANNELS 3 Zrotation Xrotation Yrotation
      JOINT Chest3
      {
        OFFSET 0 9.9351 -2.2114
        CHANNELS 3 Zrotation Xrotation Yrotation
        JOINT Neck
        {
          OFFSET 0 22.3885 -0.4656
          CHANNELS 3 Zrotation Xrotation Yrotation
          JOINT Head
          {
            OFFSET -0.0001 12.643 3.4389
            CHANNELS 3 Zrotation Xrotation Yrotation
            End Site
            {
              OFFSET 0.0001 17.6655 0.5274
            }
          }
        }
        JOINT LeftCollar
        {
          OFFSET 2.2603 21.606 7.4023
          CHANNELS 3 Zrotation Xrotation Yrotation
          JOINT LeftShoulder
          {
            OFFSET 13.5163 -1.1332 -5.0146
            CHANNELS 3 Zrotation Xrotation Yrotation
            JOINT LeftElbow
            {
              OFFSET -0.0995 -28.05 -0.2431
              CHANNELS 3 Zrotation Xrotation Yrotation
              JOINT LeftWrist
              {
                OFFSET 0.0679 -23.3996 -0.1402
                CHANNELS 3 Zrotation Xrotation Yrotation
                JOINT LeftFinger1
                {
                  OFFSET 0.7932 -9.069 2.5189
                  CHANNELS 3 Zrotation Xrotation Yrotation
                  JOINT LeftFinger11
                  {
                    OFFSET -0.8272 -3.3923 0.5977
                    CHANNELS 3 Zrotation Xrotation Yrotation
                    JOINT LeftFinger12
                    {
                      OFFSET -0.5649 -2.3158 0.4082
                      CHANNELS 3 Zrotation Xrotation Yrotation
                      End Site
                      {
                        OFFSET -0.4919 -1.6479 0.2673
                      }
                    }
                  }
                }
                JOINT LeftFinger2
                {
                  OFFSET 0.9159 -9.2044 0.2193
                  CHANNELS 3 Zrotation Xrotation Yrotation
                  JOINT LeftFinger21
                  {
                    OFFSET 0.0117 -4.1944 -0.0248
                    CHANNELS 3 Zrotation Xrotation Yrotation
                    JOINT LeftFinger22
                    {
                      OFFSET 0.0071 -2.3249 -0.0142
                      CHANNELS 3 Zrotation Xrotation Yrotation
                      End Site
                      {
                        OFFSET -0.1475 -2.0882 0.0028
                      }
                    }
                  }
                }
                JOINT LeftFinger3
                {
                  OFFSET 0.6113 -8.7231 -2.0637
                  CHANNELS 3 Zrotation Xrotation Yrotation
                  JOINT LeftFinger31
                  {
                    OFFSET -0.1927 -3.8059 -0.2383
                    CHANNELS 3 Zrotation Xrotation Yrotation
                    JOINT LeftFinger32
                    {
                      OFFSET -0.1091 -2.1688 -0.1362
                      CHANNELS 3 Zrotation Xrotation Yrotation
                      End Site
                      {
                        OFFSET -0.2358 -1.9176 -0.0906
                      }
                    }
                  }
                }
                JOINT LeftFinger4
                {
                  OFFSET -0.6151 -8.0947 -3.5641
                  CHANNELS 3 Zrotation Xrotation Yrotation
                  JOINT LeftFinger41
                  {
                    OFFSET -0.4882 -2.341 -0.6462
                    CHANNELS 3 Zrotation Xrotation Yrotation
                    JOINT LeftFinger42
                    {
                      OFFSET -0.3575 -1.7167 -0.4742
                      CHANNELS 3 Zrotation Xrotation Yrotation
                      End Site
                      {
                        OFFSET -0.4187 -1.5237 -0.3496
                      }
                    }
                  }
                }
                JOINT LeftFinger0
                {
                  OFFSET -1.42 -1.8761 1.4223
                  CHANNELS 3 Zrotation Xrotation Yrotation
                  JOINT LeftFinger01
                  {
                    OFFSET -1.1471 -3.4929 2.6334
                    CHANNELS 3 Zrotation Xrotation Yrotation
                    JOINT LeftFinger02
                    {
                      OFFSET -0.823 -2.3 1.6571
                      CHANNELS 3 Zrotation Xrotation Yrotation
                      End Site
                      {
                        OFFSET -0.5822 -1.6914 1.1582
                      }
                    }
                  }
                }
              }
            }
          }
        }
        JOINT RightCollar
        {
          OFFSET -2.2603 21.606 7.4023
          CHANNELS 3 Zrotation Xrotation Yrotation
          JOINT RightShoulder
          {
            OFFSET -13.5187 -1.1334 -5.0155
            CHANNELS 3 Zrotation Xrotation Yrotation
            JOINT RightElbow
            {
              OFFSET 0.0994 -28.0499 -0.2431
              CHANNELS 3 Zrotation Xrotation Yrotation
              JOINT RightWrist
              {
                OFFSET -0.0679 -23.3996 -0.1402
                CHANNELS 3 Zrotation Xrotation Yrotation
                JOINT RightFinger1
                {
                  OFFSET -0.7932 -9.0691 2.5189
                  CHANNELS 3 Zrotation Xrotation Yrotation
                  JOINT RightFinger11
                  {
                    OFFSET 0.8272 -3.3923 0.5977
                    CHANNELS 3 Zrotation Xrotation Yrotation
                    JOINT RightFinger12
                    {
                      OFFSET 0.565 -2.3158 0.4082
                      CHANNELS 3 Zrotation Xrotation Yrotation
                      End Site
                      {
                        OFFSET 0.4919 -1.6479 0.2673
                      }
                    }
                  }
                }
                JOINT RightFinger2
                {
                  OFFSET -0.916 -9.2044 0.2193
                  CHANNELS 3 Zrotation Xrotation Yrotation
                  JOINT RightFinger21
                  {
                    OFFSET -0.0117 -4.1944 -0.0248
                    CHANNELS 3 Zrotation Xrotation Yrotation
                    JOINT RightFinger22
                    {
                      OFFSET -0.0071 -2.3249 -0.0142
                      CHANNELS 3 Zrotation Xrotation Yrotation
                      End Site
                      {
                        OFFSET 0.1475 -2.0882 0.0028
                      }
                    }
                  }
                }
                JOINT RightFinger3
                {
                  OFFSET -0.6113 -8.7231 -2.0637
                  CHANNELS 3 Zrotation Xrotation Yrotation
                  JOINT RightFinger31
                  {
                    OFFSET 0.1927 -3.8059 -0.2383
                    CHANNELS 3 Zrotation Xrotation Yrotation
                    JOINT RightFinger32
                    {
                      OFFSET 0.1091 -2.1688 -0.1362
                      CHANNELS 3 Zrotation Xrotation Yrotation
                      End Site
                      {
                        OFFSET 0.2358 -1.9176 -0.0906
                      }
                    }
                  }
                }
                JOINT RightFinger4
                {
                  OFFSET 0.6151 -8.0947 -3.564
                  CHANNELS 3 Zrotation Xrotation Yrotation
                  JOINT RightFinger41
                  {
                    OFFSET 0.4882 -2.341 -0.6462
                    CHANNELS 3 Zrotation Xrotation Yrotation
                    JOINT RightFinger42
                    {
                      OFFSET 0.3574 -1.7166 -0.4742
                      CHANNELS 3 Zrotation Xrotation Yrotation
                      End Site
                      {
                        OFFSET 0.4187 -1.5237 -0.3496
                      }
                    }
                  }
                }
                JOINT RightFinger0
                {
                  OFFSET 1.4199 -1.8761 1.4221
                  CHANNELS 3 Zrotation Xrotation Yrotation
                  JOINT RightFinger01
                  {
                    OFFSET 1.1472 -3.4929 2.6336
                    CHANNELS 3 Zrotation Xrotation Yrotation
                    JOINT RightFinger02
                    {
                      OFFSET 0.8229 -2.3 1.6571
                      CHANNELS 3 Zrotation Xrotation Yrotation
                      End Site
                      {
                        OFFSET 0.5822 -1.6914 1.1582
                      }
                    }
                  }
                }
              }
            }
          }
        }
      }
    }
  }
  JOINT RightHip
  {
    OFFSET -9.412 3.9771 -0.7758
    CHANNELS 3 Zrotation Xrotation Yrotation
    JOINT RightKnee
    {
      OFFSET -0.7531 -40.938 0
      CHANNELS 3 Zrotation Xrotation Yrotation
      JOINT RightAnkle
      {
        OFFSET 0 -40.1986 0
        CHANNELS 3 Zrotation Xrotation Yrotation
        JOINT RightToe
        {
          OFFSET 0 -4.4182 9.239
          CHANNELS 3 Zrotation Xrotation Yrotation
          End Site
          {
            OFFSET 0 0 6.1981
          }
        }
      }
    }
  }
  JOINT LeftHip
  {
    OFFSET 9.4119 3.9773 -0.7758
    CHANNELS 3 Zrotation Xrotation Yrotation
    JOINT LeftKnee
    {
      OFFSET 0.7532 -40.9383 0
      CHANNELS 3 Zrotation Xrotation Yrotation
      JOINT LeftAnkle
      {
        OFFSET 0 -40.1986 0
        CHANNELS 3 Zrotation Xrotation Yrotation
        JOINT LeftToe
        {
          OFFSET 0 -4.4182 9.239
          CHANNELS 3 Zrotation Xrotation Yrotation
          End Site
          {
            OFFSET 0 0 6.1981
          }
        }
      }
    }
  }
}
MOTION
Frames:	6
Frame Time:	0.0333333
15.632 6.5588 27.3643 3.43941e-014 -33.0001 8.7932e-014 1.55042e-007 18.5997 -3.28159e-007 4.70927e-007 37.1995 -7.80709e-007 4.70919e-007 37.1992 -7.807e-007 -1.71252e-011 14.3027 3.0546e-011 0.983983 -29.4494 -2.28605 -2.78047e-006 -0.00185529 -12.5014 28.9876 -11.6274 21.4794 -153.759 -62.2859 -143.509 -45.9138 1.09661 36.9001 -1.59028e-015 -6.36111e-015 -0 -1.59028e-015 0 3.18055e-015 -3.18055e-015 0 1.27222e-014 -1.59028e-015 -6.36111e-015 -0 -0.0128318 0.0023209 9.30596e-005 -1.59028e-015 0 -6.36111e-015 -1.59028e-015 -6.36111e-015 -0 -0.0160496 0.00299023 0.000857588 -1.59028e-015 9.54166e-015 -3.18055e-015 -1.59028e-015 -6.36111e-015 -0 -0.0125961 0.0031224 0.00283156 -0 0 9.54166e-015 -1.59028e-015 -6.36111e-015 -0 -1.59028e-015 0 3.18055e-015 -3.18055e-015 0 1.27222e-014 -0.8709 0.13368 9.03704 -17.5424 -65.5025 1.13537 6.88477 -9.84908 2.54734 13.7409 2.70819 17.5005 2.70015e-007 7.03233e-007 2.41051e-006 9.54166e-015 2.38542e-015 -3.18055e-015 2.70015e-007 3.32243e-006 2.41051e-006 2.70015e-007 7.03233e-007 2.41051e-006 0.012964 0.00231793 -8.11928e-005 1.59028e-015 -2.38542e-015 6.36111e-015 2.70015e-007 7.03233e-007 2.41051e-006 0.0163031 0.00303487 -0.000875266 6.61935e-006 -7.18374e-006 1.35481e-005 2.70015e-007 7.03233e-007 2.41051e-006 0.0145737 0.00368456 -0.00326095 7.87801e-007 1.55747e-006 -2.72291e-007 2.70015e-007 7.03233e-007 2.41051e-006 9.54166e-015 2.38542e-015 -3.18055e-015 2.70015e-007 3.32243e-006 2.41051e-006 -52.3142 -1.56388 18.1085 179.931 53.0129 177.07 -1.70769 11.0039 -1.82545 1.50869e-006 0 7.82972e-007 50.7235 -12.6878 -5.43746 -179.833 36.4519 -175.246 -1.32583 37.5122 4.14157 8.2285e-007 -2.11264e-007 1.41515e-006 
15.6431 6.53587 26.9207 4.47504e-014 -33.0001 1.11781e-013 1.55042e-007 18.5997 -3.28159e-007 4.70927e-007 37.1995 -7.80709e-007 4.70919e-007 37.1992 -7.807e-007 -1.73059e-011 14.0608 3.04419e-011 1.00943 -31.154 -2.40597 -2.78047e-006 -0.00185529 -12.5014 28.9361 -12.1824 21.5591 -152.708 -63.2402 -142.541 -45.8599 1.4704 38.1321 -3.03624e-006 2.32931e-006 2.79195e-007 1.01995e-005 -1.34985e-006 -2.86656e-006 4.77083e-015 -4.89848e-008 -0 -3.03624e-006 2.32931e-006 2.79195e-007 -0.0128284 0.00231675 9.73369e-005 7.16344e-006 9.30274e-007 -2.58708e-006 -3.03624e-006 2.32931e-006 2.79195e-007 -0.0160236 0.00299569 0.000864308 -2.21132e-005 -1.51816e-005 -1.82528e-006 -3.03624e-006 2.32931e-006 2.79195e-007 -0.0125996 0.00312277 0.00283306 -4.98291e-006 -1.78293e-006 -1.47058e-006 -3.03624e-006 2.32931e-006 2.79195e-007 1.01995e-005 -1.34985e-006 -2.86656e-006 4.77083e-015 -4.89848e-008 -0 -0.870899 0.13368 9.03704 -18.1041 -66.1701 0.614672 6.88473 -9.84908 2.54737 13.7409 2.70819 17.5005 -2.19191e-006 -3.4494e-006 -4.23503e-006 -4.41172e-006 -1.78505e-006 4.07729e-006 7.95139e-016 -8.74653e-015 -0 -2.19191e-006 -3.4494e-006 -4.23503e-006 0.0129463 0.00232467 -8.54631e-005 -7.95139e-016 3.97569e-015 -3.18055e-015 -2.19191e-006 -3.4494e-006 -4.23503e-006 0.0163674 0.00304255 -0.00087317 -1.59028e-015 5.56597e-015 1.27222e-014 -2.19191e-006 -3.4494e-006 -4.23503e-006 0.0146194 0.00368046 -0.00327022 0 5.56597e-015 -0 -2.19191e-006 -3.4494e-006 -4.23503e-006 -4.41172e-006 -1.78505e-006 4.07729e-006 7.95139e-016 -8.74653e-015 -0 -52.1293 -2.02485 17.3745 179.928 51.854 177.005 -1.69035 10.8712 -1.87374 2.06897e-006 -8.19144e-007 -9.32712e-007 50.1699 -13.2926 -4.95133 -179.829 35.8412 -175.173 -1.37439 37.4009 4.20588 -3.98629e-007 -2.78269e-006 3.08146e-006 
15.6542 6.51324 26.4775 3.77017e-014 -33.0001 4.66821e-014 1.55042e-007 18.5997 -3.28159e-007 4.70927e-007 37.1995 -7.80709e-007 4.70919e-007 37.1992 -7.807e-007 -1.69293e-011 13.819 3.05024e-011 1.03112 -32.8595 -2.52729 -2.78047e-006 -0.00185529 -12.5014 28.8857 -12.7385 21.6386 -151.577 -64.1917 -141.493 -45.814 1.84525 39.3638 -1.59028e-015 -9.54166e-015 -9.54166e-015 9.54166e-015 3.18055e-015 9.54166e-015 3.18055e-015 -3.18055e-015 3.18055e-015 -1.59028e-015 -9.54166e-015 -9.54166e-015 -0.0128033 0.00233463 9.22944e-005 -1.59028e-015 6.36111e-015 -0 -1.59028e-015 -9.54166e-015 -9.54166e-015 -0.0160625 0.00302071 0.000856237 3.18055e-015 6.36111e-015 9.54166e-015 -1.59028e-015 -9.54166e-015 -9.54166e-015 -0.0125703 0.00313343 0.00282281 -3.18055e-015 -6.36111e-015 -0 -1.59028e-015 -9.54166e-015 -9.54166e-015 9.54166e-015 3.18055e-015 9.54166e-015 3.18055e-015 -3.18055e-015 3.18055e-015 -0.870899 0.13368 9.03704 -18.6965 -66.8358 0.0631485 6.88469 -9.84913 2.54741 13.7409 2.70819 17.5004 4.91279e-006 -7.59384e-006 1.42196e-005 6.96469e-007 1.5275e-006 4.76814e-006 -3.18055e-015 -2.38542e-015 -1.27222e-014 4.91279e-006 -7.59384e-006 1.42196e-005 0.0129516 0.0023144 -8.94519e-005 3.97569e-015 2.53444e-006 3.18055e-015 4.91279e-006 -7.59384e-006 1.42196e-005 0.0163617 0.00303663 -0.000875253 -4.3822e-007 1.19941e-006 2.67163e-006 4.91279e-006 -7.59384e-006 1.42196e-005 0.0145533 0.00368623 -0.00327121 2.0765e-006 6.59124e-007 1.87027e-006 4.91279e-006 -7.59384e-006 1.42196e-005 6.96469e-007 1.5275e-006 4.76814e-006 -3.18055e-015 -2.38542e-015 -1.27222e-014 -51.9495 -2.48244 16.6364 179.924 50.6949 176.937 -1.67247 10.7333 -1.92408 -1.59028e-015 -9.54166e-015 -3.97569e-016 49.6173 -13.897 -4.46594 -179.825 35.2307 -175.097 -1.42455 37.2857 4.2725 8.37813e-007 -2.104e-007 1.40162e-006 
15.6654 6.49091 26.0347 9.14666e-015 -33.0001 4.04176e-014 1.55042e-007 18.5997 -3.28159e-007 4.70927e-007 37.1995 -7.80709e-007 4.70919e-007 37.1992 -7.807e-007 -1.72219e-011 13.5772 3.06543e-011 1.04886 -34.565 -2.65026 -2.78047e-006 -0.00185529 -12.5014 28.8358 -13.2954 21.718 -150.358 -65.1387 -140.356 -45.7762 2.22096 40.5952 -1.08545e-005 -6.16999e-006 -5.1367e-007 1.02923e-005 7.78121e-006 -9.06692e-007 4.02291e-006 -2.2671e-006 5.30662e-007 -1.08545e-005 -6.16999e-006 -5.1367e-007 -0.0128256 0.00232652 8.31371e-005 9.71609e-007 -1.08832e-007 5.57453e-006 -1.08545e-005 -6.16999e-006 -5.1367e-007 -0.0160415 0.00299527 0.000858451 -2.29136e-006 9.50676e-007 -9.75693e-007 -1.08545e-005 -6.16999e-006 -5.1367e-007 -0.0125242 0.00311579 0.00281933 -1.27385e-005 1.24033e-007 2.66484e-006 -1.08545e-005 -6.16999e-006 -5.1367e-007 1.02923e-005 7.78121e-006 -9.06692e-007 4.02291e-006 -2.2671e-006 5.30662e-007 -0.8709 0.13368 9.03704 -19.3223 -67.4992 -0.521892 6.88463 -9.84916 2.54746 13.7409 2.70819 17.5005 1.59028e-015 -4.77083e-015 2.22639e-014 7.84409e-007 3.98527e-006 -2.95084e-007 -1.59028e-015 -7.95139e-016 -0 1.59028e-015 -4.77083e-015 2.22639e-014 0.0129662 0.00231262 -7.02815e-005 -2.38542e-015 3.18055e-015 -0 1.59028e-015 -4.77083e-015 2.22639e-014 0.0163335 0.00302822 -0.000863196 -1.59028e-015 1.59028e-015 3.18055e-015 1.59028e-015 -4.77083e-015 2.22639e-014 0.0146473 0.00368808 -0.00327529 3.97569e-015 -1.59028e-015 -6.36111e-015 1.59028e-015 -4.77083e-015 2.22639e-014 7.84409e-007 3.98527e-006 -2.95084e-007 -1.59028e-015 -7.95139e-016 -0 -51.7747 -2.93621 15.8941 179.92 49.5359 176.866 -1.654 10.5903 -1.97657 1.59028e-015 0 -1.59028e-015 49.0659 -14.5007 -3.98118 -179.821 34.6205 -175.018 -1.47641 37.1663 4.34156 -1.59028e-015 -3.49861e-014 -0 
15.6765 6.46892 25.5925 4.6089e-014 -33.0001 1.17055e-013 1.55042e-007 18.5997 -3.28159e-007 4.70927e-007 37.1995 -7.80709e-007 4.7092e-007 37.1992 -7.807e-007 -1.6825e-011 13.3355 3.03115e-011 1.06244 -36.2698 -2.77515 -2.78047e-006 -0.00185529 -12.5014 28.7863 -13.8532 21.7971 -149.041 -66.0797 -139.122 -45.7465 2.59717 41.8262 7.95139e-015 0 3.18055e-015 -1.86529e-006 2.20762e-006 3.25959e-006 5.62478e-007 -1.02239e-006 1.44531e-006 7.95139e-015 0 3.18055e-015 -0.0128498 0.00233058 9.02854e-005 8.76409e-006 -3.72861e-007 -7.37414e-006 7.95139e-015 0 3.18055e-015 -0.0160378 0.00299353 0.000860031 -1.17716e-005 -6.9874e-006 5.99581e-006 7.95139e-015 0 3.18055e-015 -0.0125929 0.00313769 0.00283587 1.59028e-015 3.18055e-015 3.18055e-015 7.95139e-015 0 3.18055e-015 -1.86529e-006 2.20762e-006 3.25959e-006 5.62478e-007 -1.02239e-006 1.44531e-006 -0.870899 0.13368 9.03704 -19.9844 -68.1601 -1.14332 6.88464 -9.84922 2.54752 13.7409 2.70818 17.5005 2.38542e-015 7.95139e-016 -3.18055e-015 -1.59028e-015 3.18055e-015 3.18055e-015 -0 0 3.18055e-015 2.38542e-015 7.95139e-016 -3.18055e-015 0.012965 0.00232822 -9.01626e-005 6.36111e-015 4.77083e-015 1.27222e-014 2.38542e-015 7.95139e-016 -3.18055e-015 0.0163004 0.00304068 -0.000872656 6.36111e-015 -1.59028e-015 1.27222e-014 2.38542e-015 7.95139e-016 -3.18055e-015 0.014569 0.00368474 -0.00326578 7.83007e-007 9.38562e-007 -3.0252e-007 2.38542e-015 7.95139e-016 -3.18055e-015 -1.59028e-015 3.18055e-015 3.18055e-015 -0 0 3.18055e-015 -51.6047 -3.38554 15.147 179.916 48.3771 176.791 -1.63492 10.4415 -2.03141 -9.15473e-006 6.29427e-006 1.22747e-005 48.5152 -15.1032 -3.49689 -179.817 34.0106 -174.936 -1.53011 37.0425 4.41318 2.97731e-006 -4.62978e-006 1.02138e-006 
15.6876 6.44724 25.1507 3.43941e-014 -33.0001 8.7932e-014 1.55042e-007 18.5997 -3.28159e-007 4.70927e-007 37.1995 -7.80709e-007 4.70919e-007 37.1992 -7.807e-007 -1.70715e-011 13.0938 3.06001e-011 1.0716 -37.9731 -2.90226 -2.78047e-006 -0.00185529 -12.5014 28.7378 -14.4119 21.876 -147.614 -67.0133 -137.778 -45.7249 2.97365 43.0564 -4.70482e-006 -9.07437e-007 -8.92369e-007 -1.12426e-006 6.6952e-008 -2.93771e-006 -5.46436e-006 1.77131e-006 3.79042e-006 -4.70482e-006 -9.07437e-007 -8.92369e-007 -0.012818 0.00232737 8.18608e-005 -2.97518e-006 2.58516e-006 4.01019e-007 -4.70482e-006 -9.07437e-007 -8.92369e-007 -0.0160337 0.00299215 0.000857988 2.70248e-006 1.53564e-006 -3.48902e-006 -4.70482e-006 -9.07437e-007 -8.92369e-007 -0.0125965 0.00312278 0.00283182 -1.15821e-005 -2.06896e-006 1.57923e-006 -4.70482e-006 -9.07437e-007 -8.92369e-007 -1.12426e-006 6.6952e-008 -2.93771e-006 -5.46436e-006 1.77131e-006 3.79042e-006 -0.8709 0.13368 9.03704 -20.6862 -68.8181 -1.80445 6.88469 -9.84929 2.54756 13.7409 2.70817 17.5005 7.81526e-007 1.50036e-006 -3.10031e-007 2.34458e-006 2.28872e-006 -9.30093e-007 -5.00553e-006 5.33987e-006 4.51182e-006 7.81526e-007 1.50036e-006 -3.10031e-007 0.0129505 0.00231351 -8.08193e-005 3.97569e-015 3.97569e-015 -6.36111e-015 7.81526e-007 1.50036e-006 -3.10031e-007 0.0163188 0.00304247 -0.000874722 9.28673e-007 2.24435e-006 4.68332e-006 7.81526e-007 1.50036e-006 -3.10031e-007 0.0146105 0.00368837 -0.00326985 4.64383e-007 2.05887e-006 2.34177e-006 7.81526e-007 1.50036e-006 -3.10031e-007 2.34458e-006 2.28872e-006 -9.30093e-007 -5.00553e-006 5.33987e-006 4.51182e-006 -51.4395 -3.8299 14.3949 179.912 47.2189 176.713 -1.61508 10.2865 -2.08872 3.18055e-015 -3.18055e-015 -3.97569e-015 47.9653 -15.7042 -3.0129 -179.813 33.4011 -174.85 -1.58566 36.9141 4.48745 2.14328e-005 1.0953e-005 -3.0833e-006 
